<svg xmlns="http://www.w3.org/2000/svg" width="24" height="24" viewBox="0 0 24 24">
    <path fill="#fff" fill-rule="evenodd" d="M10.0323755,2.4878601 C11.1165193,0.560493438 12.8707623,0.554268901 13.9584074,2.4878601 L23.5323755,19.508248 C24.6165193,21.4356147 23.7029361,22.998054 21.4969208,22.998054 L2.49386211,22.998054 C0.285567745,22.998054 -0.629237692,21.4418392 0.458407359,19.508248 L10.0323755,2.4878601 Z M11.7755266,3.46838258 L2.20155843,20.4887705 C1.86498077,21.0871308 1.81290023,20.998054 2.49386211,20.998054 L21.4969208,20.998054 C22.1731309,20.998054 22.1235123,21.0830599 21.7892245,20.4887705 L12.2152563,3.46838258 C12.1376183,3.33035945 12.0626671,3.22312156 11.9954817,3.14484689 C11.9281574,3.22315656 11.853132,3.33041752 11.7755266,3.46838258 Z M10.9953915,9.98883202 C10.9953915,9.44164045 11.4392563,8.99805405 11.9953915,8.99805405 C12.5476762,8.99805405 12.9953915,9.44902923 12.9953915,9.98883202 L12.9953915,14.0072761 C12.9953915,14.5544676 12.5515266,14.998054 11.9953915,14.998054 C11.4431067,14.998054 10.9953915,14.5470789 10.9953915,14.0072761 L10.9953915,9.98883202 Z M11.9953793,18.7980786 C12.658121,18.7980786 13.1953793,18.2608202 13.1953793,17.5980785 C13.1953793,16.9353368 12.658121,16.3980785 11.9953793,16.3980785 C11.3326376,16.3980785 10.7953792,16.9353368 10.7953792,17.5980785 C10.7953792,18.2608202 11.3326376,18.7980786 11.9953793,18.7980786 Z"/>
</svg>
