<?xml version="1.0" encoding="utf-8"?>
<!-- Generator: Adobe Illustrator 20.1.0, SVG Export Plug-In . SVG Version: 6.00 Build 0)  -->
<!DOCTYPE svg PUBLIC "-//W3C//DTD SVG 1.1//EN" "http://www.w3.org/Graphics/SVG/1.1/DTD/svg11.dtd">
<svg version="1.1" xmlns="http://www.w3.org/2000/svg" xmlns:xlink="http://www.w3.org/1999/xlink" x="0px" y="0px"
	 viewBox="0 0 400 400" enable-background="new 0 0 400 400" xml:space="preserve">
<g id="Layer_1">
	<g>
		<path fill="#B0B0B0" d="M119.9,208.7h-23c-1.8,0-3.2,1.5-3.2,3.2v23c0,1.8,1.5,3.2,3.2,3.2h23c1.8,0,3.2-1.5,3.2-3.2v-23
			C123.2,210.1,121.7,208.7,119.9,208.7z"/>
		<path fill="#B0B0B0" d="M119.9,255.9h-23c-1.8,0-3.2,1.5-3.2,3.2v23c0,1.8,1.5,3.2,3.2,3.2h23c1.8,0,3.2-1.5,3.2-3.2v-23
			C123.2,257.3,121.7,255.9,119.9,255.9z"/>
		<path fill="#B0B0B0" d="M119.9,160.7h-23c-1.8,0-3.2,1.5-3.2,3.2v23c0,1.8,1.5,3.2,3.2,3.2h23c1.8,0,3.2-1.5,3.2-3.2v-23
			C123.2,162.1,121.7,160.7,119.9,160.7z"/>
		<path fill="#B0B0B0" d="M190.6,190.1h23c1.8,0,3.2-1.5,3.2-3.2v-23c0-1.8-1.5-3.2-3.2-3.2h-23c-1.8,0-3.2,1.5-3.2,3.2v23
			C187.4,188.7,188.8,190.1,190.6,190.1z"/>
		<path fill="#B0B0B0" d="M260.4,255.9H143.7c-1.8,0-3.2,1.5-3.2,3.2v23c0,1.8,1.5,3.2,3.2,3.2h116.7c1.8,0,3.2-1.5,3.2-3.2v-23
			C263.7,257.3,262.2,255.9,260.4,255.9z"/>
		<path fill="#B0B0B0" d="M190.6,238.2h23c1.8,0,3.2-1.5,3.2-3.2v-23c0-1.8-1.5-3.2-3.2-3.2h-23c-1.8,0-3.2,1.5-3.2,3.2v23
			C187.4,236.7,188.8,238.2,190.6,238.2z"/>
		<path fill="#B0B0B0" d="M143.7,190.1h23c1.8,0,3.2-1.5,3.2-3.2v-23c0-1.8-1.5-3.2-3.2-3.2h-23c-1.8,0-3.2,1.5-3.2,3.2v23
			C140.5,188.7,142,190.1,143.7,190.1z"/>
		<path fill="#B0B0B0" d="M143.7,238.2h23c1.8,0,3.2-1.5,3.2-3.2v-23c0-1.8-1.5-3.2-3.2-3.2h-23c-1.8,0-3.2,1.5-3.2,3.2v23
			C140.5,236.7,142,238.2,143.7,238.2z"/>
		<path fill="#B0B0B0" d="M307.3,208.7h-23c-1.8,0-3.2,1.5-3.2,3.2v23c0,1.8,1.5,3.2,3.2,3.2h23c1.8,0,3.2-1.5,3.2-3.2v-23
			C310.5,210.1,309.1,208.7,307.3,208.7z"/>
		<path fill="#B0B0B0" d="M307.3,160.7h-23c-1.8,0-3.2,1.5-3.2,3.2v23c0,1.8,1.5,3.2,3.2,3.2h23c1.8,0,3.2-1.5,3.2-3.2v-23
			C310.5,162.1,309.1,160.7,307.3,160.7z"/>
		<path fill="#B0B0B0" d="M199.9,0C89.5,0,0,89.5,0,199.9s89.5,199.9,199.9,199.9s199.9-89.5,199.9-199.9S310.3,0,199.9,0z
			 M330.7,283.3c0,14.2-11.6,25.8-25.8,25.8H96.5c-14.2,0-25.8-11.6-25.8-25.8V163.5c0-14.2,11.6-25.8,25.8-25.8h75.9v-14.1
			c0-1.8,1.5-3.2,3.2-3.2h11.2c1.3-16.5,7.8-31.6,17.8-43.6c11.2-13.4,27-23.1,44.9-26.5l4.9,25.4c-11.9,2.3-22.4,8.7-29.9,17.7
			c-6.3,7.6-10.5,16.8-11.7,27h12.9c1.8,0,3.2,1.5,3.2,3.2v14.1h75.9c14.2,0,25.8,11.6,25.8,25.8V283.3z"/>
		<path fill="#B0B0B0" d="M307.3,255.9h-23c-1.8,0-3.2,1.5-3.2,3.2v23c0,1.8,1.5,3.2,3.2,3.2h23c1.8,0,3.2-1.5,3.2-3.2v-23
			C310.5,257.3,309.1,255.9,307.3,255.9z"/>
		<path fill="#B0B0B0" d="M260.4,160.7h-23c-1.8,0-3.2,1.5-3.2,3.2v23c0,1.8,1.5,3.2,3.2,3.2h23c1.8,0,3.2-1.5,3.2-3.2v-23
			C263.7,162.1,262.2,160.7,260.4,160.7z"/>
		<path fill="#B0B0B0" d="M260.4,208.7h-23c-1.8,0-3.2,1.5-3.2,3.2v23c0,1.8,1.5,3.2,3.2,3.2h23c1.8,0,3.2-1.5,3.2-3.2v-23
			C263.7,210.1,262.2,208.7,260.4,208.7z"/>
	</g>
</g>
<g id="Layer_2" display="none">
	<path display="inline" fill="#B0B0B0" d="M199.9,0C89.5,0,0,89.5,0,199.9s89.5,199.9,199.9,199.9s199.9-89.5,199.9-199.9
		S310.3,0,199.9,0z M199.9,74.4l101.7,95.4h-52.1v95h-99.3v-95H98.2L199.9,74.4z M325.9,286.6c0,14.2-11.6,25.8-25.8,25.8H99.7
		c-14.2,0-25.8-11.6-25.8-25.8v-21.8h29.5V285h193v-20.2h29.5V286.6z"/>
</g>
</svg>
