<svg xmlns="http://www.w3.org/2000/svg" width="24" height="24" viewBox="0 0 24 24">
    <path fill="#FFF" fill-rule="evenodd" d="M12,0 C18.6286724,0 24,5.37132756 24,12 C24,18.6286724 18.6286724,24 12,24 C5.37132756,24 0,18.6286724 0,12 C0,5.37132756 5.37132756,0 12,0 Z M12,2 C6.47589706,2 2,6.47589706 2,12 C2,17.5241029 6.47589706,22 12,22 C17.5241029,22 22,17.5241029 22,12 C22,6.47589706 17.5241029,2 12,2 Z M10.2469368,15.9014643 C10.5005124,15.9006369 10.7532039,15.8031453 10.9464931,15.6098561 L16.6098561,9.94649306 C16.9915051,9.56484407 16.997126,8.9260582 16.6066017,8.53553391 C16.2133548,8.14228695 15.5843695,8.14355256 15.1956426,8.53227949 L10.2426407,13.4852814 L8.11479938,11.3574401 C7.73310117,10.9757419 7.09763107,10.9734367 6.70710678,11.363961 C6.31385983,11.757208 6.31366296,12.3847308 6.70058582,12.7716536 L9.54205487,15.6131227 C9.73237654,15.8034443 9.98579099,15.8994413 10.240474,15.8994478 L10.2469368,15.9014643 Z"/>
</svg>
