<?xml version="1.0" encoding="utf-8"?>
<!-- Generator: Adobe Illustrator 19.0.1, SVG Export Plug-In . SVG Version: 6.00 Build 0)  -->
<!DOCTYPE svg PUBLIC "-//W3C//DTD SVG 1.1//EN" "http://www.w3.org/Graphics/SVG/1.1/DTD/svg11.dtd">
<svg version="1.1" id="Layer_1" xmlns="http://www.w3.org/2000/svg" xmlns:xlink="http://www.w3.org/1999/xlink" x="0px" y="0px"
	 viewBox="0 0 250.5 125.5" enable-background="new 0 0 250.5 125.5" xml:space="preserve">
<g>
	<g>
		<g>
			<g>
				<g>
					<polygon fill="#F47B29" points="193.4,35.6 211.8,47.4 193.4,27.8 					"/>
					<path fill="#F47B29" d="M203.7,57.2L203.7,57.2l10.8-6.9l-30.7-19.6l0,11.3c0,0,0,0,0,0.1v0.2c0,0.6,0.2,2.3,1.8,3.4l7.2,4.6h0
						L203.7,57.2z"/>
					<path fill="#F47B29" d="M186.5,54.4c-0.3,0.2-2.6,1.7-2.7,4.3v0v11.2l19-12.1L192,50.9L186.5,54.4z"/>
				</g>
				<g>
					<path fill="#FFFFFF" d="M155.1,80.8H135c0.3,6,3.5,8.9,9.6,8.9c3.2,0,6.4-1.2,9.6-3.7h0.3v6.8c-3.8,1.5-7.4,2.3-10.8,2.3
						c-5.3,0-9.4-1.3-12.1-4c-2.8-2.7-4.2-6.5-4.2-11.5c0-5,1.3-8.9,4-11.7c2.6-2.9,6.3-4.3,10.9-4.3c8.5,0,12.8,4.8,12.8,14.3V80.8
						z M147.6,76.3c-0.1-5.1-2-7.7-5.9-7.7c-4.1,0-6.3,2.6-6.6,7.7H147.6z"/>
					<path fill="#FFFFFF" d="M90.3,57.5c0,2.2-1.8,4-4,4c-2.2,0-4-1.8-4-4c0-2.2,1.8-4,4-4C88.5,53.4,90.3,55.2,90.3,57.5z"/>
					<path fill="#FFFFFF" d="M32.6,57c0-0.7,0.6-1.3,1.2-1.3H34h29.2v6.4H51.7v32.3h-7.7V62.1H32.6v-4.9V57z"/>
					<path fill="#FFFFFF" d="M60,66c0-0.7,0.5-1.3,1.2-1.3H62h5.5v5.4c2.3-2.2,4.2-3.6,5.7-4.4c1.5-0.7,2.9-1.1,4.4-1.1
						c0.4,0,0.9,0,1.6,0.1v8.1h-0.2c-1-0.3-2.4-0.4-4.1-0.4c-3.6,0.1-5.2,0.7-7.3,1.8v20.3H60c0-0.4,0-28,0-28V66z"/>
					<path fill="#FFFFFF" d="M117.2,57.4v23.3l-13.8-25h-7.6h-0.4c-0.7,0-1.2,0.6-1.2,1.3v0.4v37h7.1V66L117,94.4h7.4V55.7h-5.4
						h-0.4c-0.7,0-1.2,0.6-1.2,1.3V57.4z"/>
					<path fill="#FFFFFF" d="M158.2,69.9v15.5c0,3.4,0.8,5.9,2.3,7.4c1.6,1.5,4,2.3,7.4,2.3c2.3,0,4.4-0.3,6.4-0.8v-5.4h-0.2
						c-1.1,0.6-2.3,0.9-3.4,0.9c-1.8,0-3.1-0.5-3.9-1.4c-0.8-1-1.1-3-1.1-6.2V69.9h6.6l0-5.2h-6.6v-9c0,0-5.8,0-5.8,0l-0.4,0
						c-0.7,0-1.2,0.6-1.2,1.3l0,7.7V69.9z"/>
					<path fill="#FFFFFF" d="M82.5,66c0-0.7,0.6-1.3,1.2-1.3h0.4H90v29.8h-7.5v-28V66z"/>
				</g>
			</g>
		</g>
	</g>
</g>
</svg>
