<?xml version="1.0" encoding="utf-8"?>
<!-- Generator: Adobe Illustrator 18.1.1, SVG Export Plug-In . SVG Version: 6.00 Build 0)  -->
<!DOCTYPE svg PUBLIC "-//W3C//DTD SVG 1.1//EN" "http://www.w3.org/Graphics/SVG/1.1/DTD/svg11.dtd">
<svg version="1.1" id="Layer_1" xmlns="http://www.w3.org/2000/svg" xmlns:xlink="http://www.w3.org/1999/xlink" x="0px" y="0px"
	 viewBox="0 0 81.4 30.5" enable-background="new 0 0 81.4 30.5" xml:space="preserve">
<g>
	<g>
		<g>
			<g>
				<g>
					<polygon fill="#F47B29" points="71.8,3.8 79.9,9 71.8,0.3 					"/>
					<path fill="#F47B29" d="M76.3,13.3L76.3,13.3l4.8-3L67.5,1.6l0,5c0,0,0,0,0,0v0.1c0,0.3,0.1,1,0.8,1.5l3.2,2h0L76.3,13.3z"/>
					<path fill="#F47B29" d="M68.7,12.1c-0.1,0.1-1.2,0.8-1.2,1.9v0v5l8.4-5.4l-4.8-3.1L68.7,12.1z"/>
				</g>
				<g>
					<path fill="#0076BE" d="M54.8,23.8h-8.9c0.1,2.6,1.6,4,4.3,4c1.4,0,2.8-0.5,4.3-1.6h0.1v3c-1.7,0.7-3.3,1-4.8,1
						c-2.4,0-4.1-0.6-5.4-1.8c-1.2-1.2-1.8-2.9-1.8-5.1c0-2.2,0.6-3.9,1.8-5.2c1.2-1.3,2.8-1.9,4.8-1.9c3.8,0,5.6,2.1,5.6,6.3V23.8z
						 M51.5,21.8c0-2.3-0.9-3.4-2.6-3.4c-1.8,0-2.8,1.1-2.9,3.4H51.5z"/>
					<circle fill="#0076BE" cx="24.3" cy="13.5" r="1.8"/>
					<path fill="#0076BE" d="M0.6,13.3c0-0.3,0.2-0.6,0.5-0.6h0.1h12.9v2.8H9v14.3H5.6V15.5H0.6V13.3L0.6,13.3z"/>
					<path fill="#0076BE" d="M12.7,17.2c0-0.3,0.2-0.6,0.5-0.6h0.3H16V19c1-1,1.9-1.6,2.5-1.9c0.7-0.3,1.3-0.5,1.9-0.5
						c0.2,0,0.4,0,0.7,0v3.6h-0.1c-0.4-0.1-1-0.2-1.8-0.2c-1.6,0-2.3,0.3-3.2,0.8v9h-3.3c0-0.2,0-12.4,0-12.4V17.2z"/>
					<path fill="#0076BE" d="M38,13.4v10.3l-6.1-11.1h-3.4h-0.2c-0.3,0-0.5,0.3-0.5,0.6l0,0.2v16.4H31V17.2l6.9,12.6h3.3V12.7h-2.4
						h-0.2c-0.3,0-0.5,0.3-0.5,0.6V13.4z"/>
					<path fill="#0076BE" d="M56.2,19v6.9c0,1.5,0.3,2.6,1,3.3c0.7,0.7,1.8,1,3.3,1c1,0,2-0.1,2.8-0.3v-2.4h-0.1
						c-0.5,0.3-1,0.4-1.5,0.4c-0.8,0-1.4-0.2-1.7-0.6c-0.3-0.4-0.5-1.3-0.5-2.7V19h2.9l0-2.3h-2.9v-4c0,0-2.6,0-2.6,0h-0.2
						c-0.3,0-0.5,0.3-0.5,0.6l0,3.4V19z"/>
					<path fill="#0076BE" d="M22.7,17.2c0-0.3,0.3-0.6,0.5-0.6h0.2H26v13.2h-3.3V17.4V17.2z"/>
				</g>
			</g>
		</g>
	</g>
</g>
<g>
	<path fill="#0076BE" d="M78.2,4.4c-0.5,0-0.9-0.4-0.9-0.9s0.4-0.9,0.9-0.9c0.5,0,0.9,0.4,0.9,0.9S78.7,4.4,78.2,4.4z M78.2,2.7
		c-0.4,0-0.8,0.3-0.8,0.8c0,0.4,0.3,0.8,0.8,0.8c0.4,0,0.8-0.3,0.8-0.8C79,3,78.6,2.7,78.2,2.7z M78.4,4l-0.2-0.4h-0.1V4h-0.2V3h0.4
		c0.2,0,0.4,0.1,0.4,0.3c0,0.2-0.2,0.3-0.2,0.3L78.6,4H78.4z M78.2,3.1h-0.2v0.3h0.2c0.1,0,0.2-0.1,0.2-0.2
		C78.4,3.1,78.3,3.1,78.2,3.1z"/>
</g>
</svg>
